# xmcd
#
# Track frame offsets: 
#        300
#        14325
#        28124
#        48447
#        74846
#        91378
#        125876
#        141399
#        156922
#        176046
#        195245
#        208143
#
# Disc length: 2860 seconds
#
# Revision: 0
# Processed by: cddbd v1.5.2PL0 Copyright (c) Steve Scherf et al.
# Submitted via: ExactAudioCopy v1.3
#
DISCID=ba0b280c
DTITLE=The Oak Ridge Boys - Colors
DYEAR=2003
DGENRE=Country
TTITLE0=Colors
TTITLE1=The Absence of Love
TTITLE2=The Home Stretch
TTITLE3=American Beauty
TTITLE4=This Is America
TTITLE5=An American Family
TTITLE6=Let it Ride
TTITLE7=Sincerely, I remain
TTITLE8=G.I. Joe and Lillie
TTITLE9=Glory Bound
TTITLE10=Thank God for Kids
TTITLE11=The Star Spangled Banner
EXTD=
EXTT0=
EXTT1=
EXTT2=
EXTT3=
EXTT4=
EXTT5=
EXTT6=
EXTT7=
EXTT8=
EXTT9=
EXTT10=
EXTT11=
PLAYORDER=
